<svg width="131" height="45" fill="none" xmlns="http://www.w3.org/2000/svg"><path d="M4.519 1.604h.612l3.264 1.224c.374 0 .748.238 1.122.714.408.476.799 1.088 1.173 1.836.408.748.799 1.564 1.173 2.448.408.884.799 1.734 1.173 2.55.374.816.714 1.547 1.02 2.193.306.612.595 1.037.867 1.275a34.478 34.478 0 012.193-4.335 39.057 39.057 0 002.295-4.233c.17-.34.357-.765.561-1.275.238-.51.493-1.003.765-1.479a6.096 6.096 0 011.02-1.224c.408-.34.85-.51 1.326-.51.374.272.765.51 1.173.714.408.204.833.306 1.275.306l.204.408c0 .102-.017.289-.051.561-.034.272-.153.425-.357.459.612.714 1.071 1.734 1.377 3.06.34 1.292.578 2.669.714 4.131.17 1.462.272 2.89.306 4.284.034 1.394.051 2.533.051 3.417v2.754c.034 1.19 0 2.414-.102 3.672a18.51 18.51 0 01-.612 3.519c-.272 1.088-.714 1.853-1.326 2.295h-.816v-.408a1.097 1.097 0 01-.612.204c-1.36 0-2.312-.391-2.856-1.173-.544-.816-.816-1.853-.816-3.111v-.612h.204l-.204-.204c.068-.476.119-.986.153-1.53a7.846 7.846 0 00.051-1.53l.204-.204-.204-.408v-.204c0-1.87.136-3.774.408-5.712.272-1.938.408-3.774.408-5.508v-.204h-.204c-.102.272-.289.765-.561 1.479-.272.68-.595 1.479-.969 2.397-.374.884-.782 1.819-1.224 2.805a32.053 32.053 0 01-1.377 2.652 24.259 24.259 0 01-1.275 2.04c-.408.544-.782.833-1.122.867a3.161 3.161 0 00-.612.204c-.884 0-1.649-.357-2.295-1.071a10.802 10.802 0 01-1.581-2.499 34.413 34.413 0 01-1.071-2.958c-.272-1.02-.527-1.836-.765-2.448a7.32 7.32 0 00-.663-1.377 3.07 3.07 0 01-.357-1.479h-.204c-.306 1.938-.595 3.91-.867 5.916a49.33 49.33 0 00-.357 5.916h-.204l.204.204c0 .17-.017.527-.051 1.071-.034.51-.085 1.122-.153 1.836-.068.68-.153 1.411-.255 2.193a29.571 29.571 0 01-.357 2.091 11.245 11.245 0 01-.459 1.581c-.17.408-.357.612-.561.612-.17.102-.34.17-.51.204h-.51c-.476 0-.918-.085-1.326-.255-.408-.17-.714-.493-.918-.969 0-.85-.034-1.7-.102-2.55-.068-.85-.102-1.7-.102-2.55 0-.476.034-1.36.102-2.652.068-1.292.153-2.788.255-4.488.136-1.7.306-3.485.51-5.355.204-1.87.442-3.604.714-5.202.272-1.632.578-3.026.918-4.182.374-1.19.765-1.921 1.173-2.193zm30.26 13.158c.578 0 1.258.17 2.04.51.782.306 1.564.697 2.346 1.173.816.476 1.564.969 2.244 1.479.714.51 1.292.952 1.734 1.326 0 .476-.068 1.037-.204 1.683a50.277 50.277 0 01-.459 1.887c-.17.646-.357 1.292-.56 1.938-.17.612-.307 1.156-.409 1.632a59.354 59.354 0 002.805-2.193c.986-.85 1.82-1.683 2.5-2.499.237-.272.492-.612.764-1.02.272-.408.63-.612 1.071-.612l.204.816.408-.204.408.204-6.936 7.752c-.034.17-.153.34-.357.51-.17.136-.323.238-.459.306h-.204a7.166 7.166 0 01-1.632-.561 8.196 8.196 0 01-1.58-.969 6.202 6.202 0 01-1.225-1.275 3.21 3.21 0 01-.459-1.683h-.408c0 .238-.119.561-.357.969-.204.408-.459.833-.765 1.275-.272.408-.56.799-.867 1.173a17.53 17.53 0 01-.663.867c-.374-.068-.85-.153-1.428-.255a9.777 9.777 0 01-1.683-.561 5.014 5.014 0 01-1.377-.867 1.796 1.796 0 01-.612-1.377v-.612c0-.714.17-1.666.51-2.856.34-1.224.782-2.414 1.326-3.57.578-1.19 1.224-2.21 1.938-3.06.748-.884 1.53-1.326 2.346-1.326zm0 9.384a14.669 14.669 0 002.091-2.907 40.142 40.142 0 001.581-3.213l-1.02-.816c-.238.204-.51.629-.816 1.275a19.373 19.373 0 00-.867 2.04c-.272.714-.51 1.394-.714 2.04-.17.646-.255 1.105-.255 1.377v.204zm12.036-1.02c.17-.17.408-.374.714-.612.34-.272.646-.408.918-.408 0-.272-.136-.408-.408-.408h-.204a9.998 9.998 0 00-.459.51c-.204.204-.39.306-.56.306v.612zm-1.836 1.632h.408l.204-.408c-.136.068-.34.136-.612.204v.204zm5.175-8.007c.374 0 .697.085.969.255.306.136.595.323.867.561.068 0 .17.034.306.102.17.034.34.102.51.204.17.068.306.153.408.255.136.068.204.153.204.255 0 .374-.034.748-.102 1.122a6.26 6.26 0 00-.102 1.122v.204h.204c.068-.272.204-.578.408-.918.238-.34.493-.68.765-1.02.272-.34.544-.663.816-.969.272-.306.493-.561.663-.765l.204.204c0-.272.153-.51.459-.714.306-.238.561-.408.765-.51h.408c.374.238.782.51 1.224.816.442.306.833.646 1.173 1.02.374.374.68.782.918 1.224.238.442.357.918.357 1.428h-.204l.204.408v2.652c0 .068-.034.238-.102.51-.034.272-.068.442-.102.51h.204c.68-.68 1.309-1.394 1.887-2.142a21.785 21.785 0 001.581-2.346l.408-.204c.374 0 .629.051.765.153.136.102.289.323.459.663v.612c-.136.306-.391.833-.765 1.581a40.273 40.273 0 01-1.275 2.244 19.72 19.72 0 01-1.479 2.04c-.51.578-.969.867-1.377.867-.544 0-1.122-.119-1.734-.357a6.99 6.99 0 01-1.581-1.02 5.792 5.792 0 01-1.122-1.428 3.39 3.39 0 01-.459-1.683c0-.646-.068-1.19-.204-1.632h.204l-.204-.408v-.612l.204-.204-.204-.408.408-.612-.204-.408.204-1.02h-.612a39.261 39.261 0 00-2.805 4.845 11.822 11.822 0 00-1.275 5.355c0 .17-.085.306-.255.408a3.334 3.334 0 00-.357.204 53.819 53.819 0 01-2.091-.561c-.544-.204-.986-.459-1.326-.765-.306-.34-.527-.765-.663-1.275-.136-.544-.204-1.241-.204-2.091 0-.272.068-.816.204-1.632.102-.85.272-1.717.51-2.601.238-.918.51-1.734.816-2.448.34-.714.714-1.071 1.122-1.071zm14.28 6.936h.204c0-.17.068-.374.204-.612a9.34 9.34 0 01.408-.612h-.204l-.612 1.02v.204zm5.564-8.211c.238 0 .561.085.97.255.407.136.832.306 1.274.51.476.204.918.408 1.326.612l.918.459c0-.34.136-.578.408-.714.272-.136.544-.238.816-.306 1.088.646 1.904 1.19 2.448 1.632.578.408.986.867 1.224 1.377.238.476.357 1.071.357 1.785.034.714.051 1.7.051 2.958.272-.204.663-.51 1.173-.918a38.447 38.447 0 011.734-1.326 15.266 15.266 0 011.785-1.122c.612-.34 1.088-.51 1.428-.51h.408c.272.17.527.34.765.51.238.136.46.306.663.51a25.274 25.274 0 01-3.876 2.703 188.523 188.523 0 00-4.08 2.397c0 .986-.102 2.108-.306 3.366a30.181 30.181 0 01-.765 3.723 25.035 25.035 0 01-1.173 3.621c-.442 1.156-.918 2.142-1.428 2.958-.238.408-.595.85-1.07 1.326-.443.51-.936.986-1.48 1.428a8.23 8.23 0 01-1.683 1.071c-.578.306-1.139.459-1.683.459-.374 0-.799-.034-1.275-.102a4.115 4.115 0 01-1.275-.306 2.359 2.359 0 01-.969-.663c-.238-.272-.357-.663-.357-1.173 0-.918.255-1.972.765-3.162.544-1.19 1.19-2.38 1.938-3.57a63.892 63.892 0 012.397-3.315 214.597 214.597 0 012.04-2.601c0-.17.017-.51.051-1.02.068-.51.12-1.037.153-1.581.068-.578.136-1.105.204-1.581.068-.476.136-.782.204-.918l-.204-.816h.204l-.204-.204.102-.714c.068-.272.102-.51.102-.714v-.612h-.408c-.204.442-.476.969-.816 1.581a35.126 35.126 0 01-1.02 1.887 81.885 81.885 0 01-1.122 1.785c-.374.544-.748.969-1.122 1.275h-.204c-1.36-.17-2.55-.612-3.57-1.326-1.02-.748-1.53-1.87-1.53-3.366 0-.612.17-1.343.51-2.193.34-.884.782-1.717 1.326-2.499.544-.816 1.156-1.496 1.836-2.04.68-.544 1.36-.816 2.04-.816zm-1.02 27.132a32.564 32.564 0 002.652-4.437c.816-1.598 1.224-3.247 1.224-4.947a26.05 26.05 0 00-1.377 1.785c-.476.748-.935 1.53-1.377 2.346-.408.85-.765 1.683-1.07 2.499-.307.816-.46 1.53-.46 2.142 0 .136.017.272.051.408.068.136.187.204.357.204zm1.428-19.992c.272-.204.561-.493.867-.867.34-.374.663-.765.97-1.173.34-.408.645-.816.917-1.224.272-.408.51-.748.714-1.02a11.502 11.502 0 00-.51-.357c-.17-.17-.34-.255-.51-.255-.34 0-.646.221-.918.663-.272.408-.51.901-.714 1.479a15.025 15.025 0 00-.51 1.632c-.136.51-.238.884-.306 1.122zm15.207 1.632l-.204-.408v-.816l.204-.204-.204-.204c.068-.442.187-1.071.357-1.887.136-.816.34-1.632.612-2.448.272-.816.63-1.513 1.071-2.091.442-.612.986-.918 1.632-.918h.204a13.949 13.949 0 011.53 1.071c.34.238.646.476.918.714.272.204.408.357.408.459 0 .544-.05 1.207-.153 1.989-.102.748-.22 1.53-.357 2.346a55.85 55.85 0 01-.357 2.346c-.136.782-.255 1.479-.357 2.091.102-.136.46-.527 1.071-1.173a99.935 99.935 0 011.99-2.142 64.017 64.017 0 011.988-2.091c.612-.612.97-.918 1.071-.918.476 0 .68.272.612.816a124.457 124.457 0 00-3.366 4.896 47.396 47.396 0 00-2.958 5.1c-.578.068-1.207-.017-1.887-.255a7.105 7.105 0 01-1.887-1.122 6.633 6.633 0 01-1.377-1.683 4.011 4.011 0 01-.56-2.04l-.205-.204.204-.612-.204-.612h.204zM88.47 8.744c.238-.646.578-1.054 1.02-1.224h.204c.068.034.238.153.51.357.306.17.612.374.918.612.306.204.578.408.816.612.272.204.408.357.408.459v.816a41.67 41.67 0 00-.816 1.275 9.06 9.06 0 01-.816 1.173c-.442 0-.816-.153-1.122-.459a3.791 3.791 0 01-.663-1.071 9.005 9.005 0 01-.306-1.377 39.3 39.3 0 01-.153-1.173zm8.662 8.109v-.204c.034-.102.085-.153.153-.153l-.204-.204c.068-.374.153-.969.255-1.785a71.28 71.28 0 01.51-2.703 64.81 64.81 0 01.714-3.06 22.103 22.103 0 011.02-2.907c.374-.884.782-1.598 1.224-2.142.476-.578 1.003-.867 1.581-.867h.408c.102.034.323.153.663.357.34.17.697.357 1.071.561.408.204.765.425 1.071.663.306.204.459.357.459.459.136.136.204.34.204.612 0 .918-.085 1.904-.255 2.958a37.484 37.484 0 01-.561 3.213 106.759 106.759 0 01-.765 3.162c-.238 1.02-.459 1.989-.663 2.907l.204.204-.306 1.122a6.26 6.26 0 00-.102 1.122l.204.204c-.272 0-.408.136-.408.408l.408.204a7.6 7.6 0 01-.153.765 1.586 1.586 0 01-.255.663l.204.408-.204.204.204.408v1.632l-.204.204.204.408c-.034.51-.034 1.054 0 1.632.034.578.102 1.122.204 1.632.17-.204.442-.561.816-1.071l1.275-1.734c.51-.68 1.037-1.36 1.581-2.04a51.174 51.174 0 011.581-1.887c.51-.612.986-1.105 1.428-1.479.442-.374.799-.561 1.071-.561.068.272.204.408.408.408 0 .068-.119.306-.357.714-.238.374-.544.833-.918 1.377-.34.544-.714 1.139-1.122 1.785a156.06 156.06 0 00-1.173 1.785l-1.02 1.479c-.272.408-.442.68-.51.816-.102.204-.255.544-.459 1.02-.204.442-.442.918-.714 1.428a9.032 9.032 0 01-.765 1.275c-.238.408-.476.663-.714.765a7.493 7.493 0 01-2.652-.459 16.022 16.022 0 01-2.448-1.173 31.053 31.053 0 01-1.173-2.193 10.104 10.104 0 01-.612-1.785 23.454 23.454 0 01-.357-1.887c-.068-.68-.17-1.513-.306-2.499l.204-.612-.204-.612.204-.204a3.33 3.33 0 01-.153-.51 5.884 5.884 0 01-.05-.51V18.74c.033-.68.118-1.309.254-1.887zm10.557 9.435h.408l.204-.612.204-.612c-.17 0-.34.153-.51.459a5.99 5.99 0 01-.306.561v.204zm-1.224 2.856v-.816h-.204l-.102.408a.905.905 0 01-.102.408h.408zm1.224-2.244v-.408h-.204c-.272 0-.408.136-.408.408h.612zm8.273-12.138c.578 0 1.258.17 2.04.51.782.306 1.564.697 2.346 1.173.816.476 1.564.969 2.244 1.479.714.51 1.292.952 1.734 1.326 0 .476-.068 1.037-.204 1.683a50.277 50.277 0 01-.459 1.887c-.17.646-.357 1.292-.561 1.938-.17.612-.306 1.156-.408 1.632a59.354 59.354 0 002.805-2.193c.986-.85 1.819-1.683 2.499-2.499.238-.272.493-.612.765-1.02.272-.408.629-.612 1.071-.612l.204.816.408-.204.408.204-6.936 7.752c-.034.17-.153.34-.357.51-.17.136-.323.238-.459.306h-.204a7.166 7.166 0 01-1.632-.561 8.196 8.196 0 01-1.581-.969 6.202 6.202 0 01-1.224-1.275 3.21 3.21 0 01-.459-1.683h-.408c0 .238-.119.561-.357.969-.204.408-.459.833-.765 1.275-.272.408-.561.799-.867 1.173a17.53 17.53 0 01-.663.867c-.374-.068-.85-.153-1.428-.255a9.777 9.777 0 01-1.683-.561 5.014 5.014 0 01-1.377-.867 1.796 1.796 0 01-.612-1.377v-.612c0-.714.17-1.666.51-2.856.34-1.224.782-2.414 1.326-3.57.578-1.19 1.224-2.21 1.938-3.06.748-.884 1.53-1.326 2.346-1.326zm0 9.384a14.669 14.669 0 002.091-2.907 40.142 40.142 0 001.581-3.213l-1.02-.816c-.238.204-.51.629-.816 1.275a19.373 19.373 0 00-.867 2.04c-.272.714-.51 1.394-.714 2.04-.17.646-.255 1.105-.255 1.377v.204zm12.036-1.02c.17-.17.408-.374.714-.612.34-.272.646-.408.918-.408 0-.272-.136-.408-.408-.408h-.204a9.998 9.998 0 00-.459.51c-.204.204-.391.306-.561.306v.612zm-1.836 1.632h.408l.204-.408c-.136.068-.34.136-.612.204v.204z" fill="#101010"/></svg>