<svg id="Capa_1" enable-background="new 0 0 512 512" height="512" viewBox="0 0 512 512" width="512" xmlns="http://www.w3.org/2000/svg"><path d="m413.761 175.152c.125-9.669-.562-19.474-2.15-29.341l-2.439-15.159-16.571 2.667c-17.418 2.803-34.006 8.172-49.35 15.834 5.924 14.643 10.326 29.905 13.114 45.597 17.817-9.153 37.101-15.829 57.396-19.598z"/><path d="m50.6 339.257c-14.898 7.215-28.672 16.904-40.809 28.868l-9.791 9.651 8.742 8.869c43.526 44.155 107.489 56.213 162.182 35.983-49.38-12.635-91.824-42.768-120.324-83.371z"/><path d="m157.007 194.846c2.844-15.572 7.268-30.719 13.205-45.248-15.589-7.898-32.476-13.424-50.226-16.28l-16.571-2.667-2.439 15.159c-1.581 9.828-2.278 19.597-2.162 29.228 20.59 3.761 40.145 10.514 58.193 19.808z"/><path d="m470.768 218.522v-16.989h-18.496c-33.781 0-65.417 9.33-92.492 25.531.1 2.798.167 5.602.167 8.416 0 61.432-23.923 119.187-67.362 162.626l-1.114 1.115c98.996-.768 179.297-81.527 179.297-180.699z"/><path d="m502.209 368.125c-11.899-11.729-25.371-21.272-39.934-28.439-28.66 40.618-71.307 70.687-120.875 83.149 17.06 6.28 35.293 9.505 54.03 9.384 40.853-.294 79.147-16.479 107.827-45.574l8.742-8.869z"/><path d="m271.417 94.022-14.245-14.245-15.417 15.416c-37.784 37.785-58.594 88.022-58.594 141.458 0 53.435 20.809 103.672 58.594 141.457l14.245 14.246 15.417-15.416c37.784-37.785 58.594-88.022 58.594-141.457-.001-53.437-20.81-103.674-58.594-141.459z"/><path d="m153.434 227.082c-27.084-16.214-58.737-25.549-92.534-25.549h-18.496v16.989c0 98.777 79.662 179.284 178.112 180.684-43.394-43.431-67.292-101.156-67.292-162.554 0-3.201.08-6.39.21-9.57z"/></svg>